<?xml version="1.0" standalone="no"?>
<!DOCTYPE svg PUBLIC "-//W3C//DTD SVG 20010904//EN"
 "http://www.w3.org/TR/2001/REC-SVG-20010904/DTD/svg10.dtd">
<svg version="1.0" xmlns="http://www.w3.org/2000/svg"
 width="232.000000pt" height="232.000000pt" viewBox="0 0 232.000000 232.000000"
 preserveAspectRatio="xMidYMid meet">
<metadata>
Created by potrace 1.11, written by Peter Selinger 2001-2013
</metadata>
<g transform="translate(0.000000,232.000000) scale(0.100000,-0.100000)"
fill="#000000" stroke="none">
<path d="M2120 2306 c-7 -9 -135 -255 -285 -548 l-273 -532 51 -23 c29 -14 60
-32 70 -40 9 -9 20 -13 24 -9 4 4 123 231 264 504 140 273 260 496 266 495 7
-2 11 26 11 81 l0 83 -57 2 c-42 1 -61 -2 -71 -13z"/>
<path d="M270 1595 l0 -355 428 2 427 3 3 22 c3 19 -2 22 -35 25 l-38 3 -3
303 -2 302 -70 0 -70 0 -2 -302 c-3 -262 -5 -303 -18 -303 -13 0 -15 34 -18
238 l-2 237 -65 0 -65 0 -2 -237 c-3 -204 -5 -238 -18 -238 -12 0 -16 22 -20
120 l-5 120 -65 0 -65 0 -5 -120 c-4 -98 -8 -120 -20 -120 -11 0 -16 15 -18
63 l-3 63 -62 -3 -62 -3 -5 -60 c-5 -59 -6 -60 -35 -60 l-30 0 -3 328 -2 327
-25 0 -25 0 0 -355z"/>
<path d="M1425 1142 c-59 -20 -94 -44 -184 -125 -135 -121 -227 -168 -421
-216 -150 -37 -280 -52 -495 -58 -233 -6 -245 -9 -245 -69 0 -45 67 -171 136
-255 146 -179 387 -321 674 -399 78 -21 276 -29 296 -11 5 4 31 14 58 20 118
29 251 117 323 214 116 158 173 350 174 583 1 104 -2 129 -22 173 -28 66 -95
126 -162 146 -63 19 -70 18 -132 -3z m-23 -402 l185 -91 -9 -56 c-20 -130 -78
-251 -156 -328 -104 -103 -315 -168 -436 -134 l-39 11 45 26 c77 46 179 125
175 136 -6 16 -39 11 -141 -18 -111 -32 -288 -60 -332 -53 -18 3 -54 18 -81
33 l-47 28 39 8 c22 5 75 20 117 34 141 47 116 59 -112 55 -160 -2 -178 -1
-199 16 l-24 19 84 23 c102 27 173 57 164 71 -4 6 -71 10 -175 10 l-169 0 -25
43 -26 42 88 2 c316 9 623 73 812 172 41 21 76 39 76 40 1 0 85 -40 186 -89z"/>
<path d="M1936 480 c-41 -13 -75 -48 -87 -92 -13 -51 15 -119 60 -142 59 -31
140 -14 174 37 66 102 -31 232 -147 197z"/>
<path d="M2006 126 c-30 -29 -33 -52 -10 -84 21 -31 87 -31 108 0 21 29 20 51
-1 76 -30 35 -68 38 -97 8z"/>
<path d="M1651 104 c-12 -15 -21 -32 -21 -39 0 -7 9 -24 21 -39 27 -34 81 -36
103 -4 51 73 -48 151 -103 82z"/>
</g>
</svg>
